<?xml version="1.0" standalone="no"?>
<!DOCTYPE svg PUBLIC "-//W3C//DTD SVG 20010904//EN"
 "http://www.w3.org/TR/2001/REC-SVG-20010904/DTD/svg10.dtd">
<svg version="1.0" xmlns="http://www.w3.org/2000/svg"
 width="577.000000pt" height="432.000000pt" viewBox="0 0 577.000000 432.000000"
 preserveAspectRatio="xMidYMid meet">

<g transform="translate(0.000000,432.000000) scale(0.100000,-0.100000)"
fill="#000000" stroke="none">
<path d="M2766 3964 c-58 -74 -100 -162 -120 -251 -32 -143 -15 -221 100 -451
76 -153 87 -181 91 -240 6 -76 -4 -75 -32 3 -20 54 -38 82 -146 220 -61 79
-100 145 -137 235 -10 25 -10 24 -31 -21 -36 -79 -51 -159 -51 -264 0 -126 23
-201 89 -286 25 -33 67 -88 93 -122 111 -146 128 -217 83 -363 -6 -21 -5 -21
37 -14 163 31 321 138 412 280 68 104 81 149 81 270 0 141 -27 213 -137 372
-205 298 -233 345 -265 448 -10 34 -17 90 -17 148 -1 50 -2 92 -3 92 -2 0 -23
-25 -47 -56z"/>
<path d="M1850 2130 l0 -50 353 -2 352 -3 3 -555 2 -556 50 -49 50 -49 0 657
0 657 -405 0 -405 0 0 -50z"/>
<path d="M2790 1342 c0 -830 0 -838 20 -860 26 -28 31 -27 58 1 l22 23 0 837
0 837 -50 0 -50 0 0 -838z"/>
<path d="M3050 1523 l0 -657 50 49 50 49 2 556 3 555 353 3 352 2 0 50 0 50
-405 0 -405 0 0 -657z"/>
<path d="M2090 1935 l0 -45 115 0 115 0 0 -343 0 -343 45 -44 45 -44 0 432 0
432 -160 0 -160 0 0 -45z"/>
<path d="M3300 1548 l0 -432 45 44 45 44 0 343 0 343 115 0 115 0 0 45 0 45
-160 0 -160 0 0 -432z"/>
</g>
</svg>
